<svg width="16" height="16" viewBox="0 0 16 16" fill="none" xmlns="http://www.w3.org/2000/svg">
<g clip-path="url(#clip0)">
<path fill-rule="evenodd" clip-rule="evenodd" d="M8 0C8.3772 0 8.7223 0.212244 8.89246 0.548878L10.8202 4.36254L15.1405 4.97547C15.5201 5.02933 15.8355 5.29548 15.9524 5.66063C16.0693 6.02577 15.9671 6.42562 15.6894 6.68994L12.5777 9.65143L13.3112 13.827C13.3768 14.2009 13.2252 14.5797 12.9196 14.8049C12.614 15.0302 12.2073 15.063 11.8696 14.8896L8 12.9034L4.13042 14.8896C3.79271 15.063 3.38596 15.0302 3.0804 14.8049C2.77484 14.5797 2.62317 14.2009 2.68884 13.827L3.42235 9.65143L0.310599 6.68994C0.0328681 6.42562 -0.0692859 6.02577 0.0476259 5.66063C0.164538 5.29548 0.47993 5.02933 0.859534 4.97547L5.17981 4.36254L7.10754 0.548878C7.2777 0.212244 7.6228 0 8 0ZM8 3.2167L6.72934 5.73046L6.49396 6.19613L5.97735 6.26942L3.18593 6.66545L5.1894 8.57218L5.57765 8.94168L5.48492 9.46957L5.00672 12.1917L7.54334 10.8897L8 10.6553L8.45666 10.8897L10.9933 12.1917L10.5151 9.46957L10.4223 8.94168L10.8106 8.57218L12.8141 6.66545L10.0227 6.26942L9.50604 6.19613L9.27066 5.73046L8 3.2167Z" fill="#3C2B00"/>
</g>
<defs>
<clipPath id="clip0">
<rect width="16" height="16" fill="white"/>
</clipPath>
</defs>
</svg>
