<svg width="72" height="72" viewBox="0 0 72 72" fill="none" xmlns="http://www.w3.org/2000/svg">
<path d="M36 35.5C36 32.9804 37.0009 30.5641 38.7825 28.7825C40.5641 27.0009 42.9804 26 45.5 26C48.0196 26 50.4359 27.0009 52.2175 28.7825C53.9991 30.5641 55 32.9804 55 35.5C55 38.0196 53.9991 40.4359 52.2175 42.2175C50.4359 43.9991 48.0196 45 45.5 45C42.9804 45 40.5641 43.9991 38.7825 42.2175C37.0009 40.4359 36 38.0196 36 35.5Z" fill="black"/>
<path d="M17 54.5C17 51.9804 18.0009 49.5641 19.7825 47.7825C21.5641 46.0009 23.9804 45 26.5 45H36V54.5C36 57.0196 34.9991 59.4359 33.2175 61.2175C31.4359 62.9991 29.0196 64 26.5 64C23.9804 64 21.5641 62.9991 19.7825 61.2175C18.0009 59.4359 17 57.0196 17 54.5Z" fill="black"/>
<path d="M36 7V26H45.5C48.0196 26 50.4359 24.9991 52.2175 23.2175C53.9991 21.4359 55 19.0196 55 16.5C55 13.9804 53.9991 11.5641 52.2175 9.78249C50.4359 8.00089 48.0196 7 45.5 7L36 7Z" fill="black"/>
<path d="M17 16.5C17 19.0196 18.0009 21.4359 19.7825 23.2175C21.5641 24.9991 23.9804 26 26.5 26H36V7H26.5C23.9804 7 21.5641 8.00089 19.7825 9.78249C18.0009 11.5641 17 13.9804 17 16.5Z" fill="black"/>
<path d="M17 35.5C17 38.0196 18.0009 40.4359 19.7825 42.2175C21.5641 43.9991 23.9804 45 26.5 45H36V26H26.5C23.9804 26 21.5641 27.0009 19.7825 28.7825C18.0009 30.5641 17 32.9804 17 35.5Z" fill="black"/>
</svg>
