<svg width="96" height="96" xmlns="http://www.w3.org/2000/svg"><path d="M27.346.074l.78-.095.122.015c3.47.423 5.341 3.113 5.617 7.605.09 1.453.041 2.993-.132 4.627-.265 2.511-.787 5.061-1.61 8.2l-.516 1.897-.725 2.631.12.03c10.664 2.612 18.732 8.12 23.957 16.8l.277.467.272.474c3.15 5.598 4.836 10.554 5.071 16.375.015.391-.013.71-.107 1.386l-.089.648c-.07.56-.08.856-.033 1.05.03.132.16.356.392.64.132.161.288.333.479.527l.523.51c.227.215.576.547.745.714l.74.744c3.038 3.021 5.492 4.962 7.557 5.69 2.03.714 4.605.648 7.956-.063l.607-.133c.714-.163 1.457-.35 2.332-.587l3.855-1.076.696-.187A36.998 36.998 0 0188 68.54c4.008-.838 6.476-.165 7.658 2.66l.13.331.242 1.995-.05.189c-.95 3.571-3.637 5.872-8.737 8.505-9.919 5.106-26.508 8.18-41.48 8.105l-.368-.003-.014.011c-2.416 1.992-5.62 3.446-9.698 4.476l-.537.132-.547.127-6.459.824-2.084.077c-.447.015-.828.025-1.22.032l-.196.004c-5.78.097-9.383-.587-11.692-2.88-1.766-1.752-2.707-4.706-2.11-7.358.81-3.592 4.4-6.186 9.489-7.71l.477-.138-.064-.144-.16-.324-.627-1.164a9.303 9.303 0 01-.497-1.092c-1.762-4.669-1.698-10.869-.165-15.488l.148-.428.026-.072-.741-.15-.643-.129-.252-.055-.085.447c-.188 1.005-.35 1.52-.774 2.11-3.355 4.658-11.315 2.056-10.857-4.303.179-2.423 2.045-4.47 5.3-6.66.303-.204.611-.405.946-.617l1.052-.653 1.853-1.13c.13-.076.273-.159.445-.257l3.283-1.854c.18-.103.35-.2.511-.295l.238-.14c2.058-1.214 3.363-2.327 3.592-3.163.165-.603.095-1.549-.114-2.493l-.06-.257-.06-.229-.117.16-.077.095-.08.092c-1.244 1.372-2.7 2.778-4.416 4.282l-1.631 1.397c-2.754 2.314-4.756 3.608-7.088 4.284-4.178 1.206-7.794-.523-9.31-4.436l-.134-.362-.272-2.24.03-.158C1.32 35.732 5.427 31.64 13.797 27.187l.662-.348-1.6-1.746c-.308-.34-.602-.665-.85-.944l-.427-.49c-3.237-3.813-5.14-7.401-5.531-11.508-.324-3.484 1.054-6.639 3.682-8.185 2.96-1.742 5.438-.959 8.685 1.67l1.324 1.109.11-.236c1.327-2.801 2.945-4.697 5.325-5.901l.315-.153.31-.14.128-.056.139-.018c.42-.057.845-.112 1.278-.167zm.862 1.962l-.092-.014-1.152.145-.481.064-.148.067c-2.23 1.05-3.688 2.833-4.945 5.727l-.15.353-.149.363-.483 1.209-1.053-.764c-.263-.191-.534-.404-.868-.68L17.381 7.41c-2.785-2.308-4.547-2.916-6.62-1.695-1.906 1.12-2.947 3.505-2.693 6.247.332 3.486 1.944 6.628 4.743 10.008l.316.376c.596.702 2.05 2.283 2.961 3.269l.781.846.875.986-1.178.592C7.607 32.542 3.396 36.297 2.063 42.55l-.037.176.207 1.695.05.132c1.078 2.746 3.41 3.967 6.335 3.319l.26-.062.249-.068c1.807-.524 3.464-1.536 5.668-3.328l.99-.823.781-.667c1.883-1.623 3.45-3.117 4.755-4.558l.075-.091.239-.342c.534-.79.934-1.189 1.652-1.303l.17-.021.72-.066.298.658c.77 1.706 1.244 4.122.814 5.693-.424 1.548-1.989 2.882-4.518 4.376l-.77.446-3.62 2.049c-.186.108-.34.2-.502.3l-1.748 1.07c-.607.374-1.108.693-1.586 1.015-2.767 1.861-4.292 3.535-4.41 5.125-.307 4.272 5.002 6.007 7.188 2.972.162-.226.254-.464.356-.942l.185-.948c.068-.332.124-.56.203-.808l.087-.26.334-.953.955.331a8.2 8.2 0 001.092.285l1.055.21c.65.133 1.039.23 1.45.375l1.158.425-.444.99c-1.889 4.219-2.18 10.811-.4 15.53.104.277.224.539.409.891l.653 1.214.04.082c.288.573.476 1.07.572 1.584l.04.258.113.895-.876.216c-5.202 1.278-8.82 3.625-9.489 6.592-.44 1.951.277 4.2 1.561 5.473 1.786 1.774 4.977 2.38 10.229 2.291l.969-.022c.337-.01.702-.022 1.14-.038l1.257-.044 6.274-.8c4.211-.957 7.478-2.36 9.828-4.29l.288-.243.292-.253.385.004c14.86.179 31.524-2.854 41.275-7.873 4.492-2.32 6.815-4.265 7.637-6.983l.017-.061-.163-1.345-.023-.057c-.687-1.613-2.032-2.053-4.794-1.559l-.281.053-.291.058c-.498.105-1.04.236-1.677.403l-1.05.284-3.096.868c-1.339.367-2.38.628-3.43.85-3.683.782-6.595.856-9.05-.008-2.525-.889-5.243-3.072-8.646-6.497l-.367-.371c-.164-.165-.907-.867-.975-.933a11.727 11.727 0 01-.955-1.015c-.409-.502-.681-.971-.794-1.458a3.155 3.155 0 01-.054-.283l.061.89-2.071-1.997-.235-.232a18.785 18.785 0 00-2.89-2.335c-3.26-2.14-7.014-3.193-11.277-2.606-9.088 1.244-13 12.986-7.381 21.133l.173.246 1.374 1.909-2.331-.312c-2.437-.326-5.141-.368-8.115-.136l-.69.058-.526.048-.341-.403c-3.885-4.596-4.631-14.983-1.67-20.07l.165-.272.305-.482.57.011c.387.007.704.022 1.254.057l1.525.098.23.012c2.494.124 3.933-.16 4.992-1.17 1.723-1.627.125-5.915-2.185-5.915-1.659 0-2.916.924-4.49 3.015l-.614.844-.514.722-.3.411c-.187.253-.354.468-.517.665l-.17.2-.345.398-.706-.074-.357-.049c-.466-.073-1.038-.194-2.084-.437l-1.218-.286a4.241 4.241 0 01-.304-.084l-.825-.282a8.306 8.306 0 00-.787-.233c-.445-.103-.735-.104-.86-.052l-.017.01c.007 0 .008.016.006.058l-.002.051c-.005.125.002.254.029.464l.133.894c.132.921.13 1.544-.123 2.169-1.265 3.12-6.508 2.357-6.593-1.46-.01-.39.055-.78.19-1.169.505-1.454 1.914-2.826 4.06-4.295.382-.262.779-.52 1.206-.788l.608-.374 1.374-.821.214-.126c.476-.278.957-.546 1.53-.856l2.443-1.304.173-.094c1.738-.947 2.822-1.66 3.653-2.456 1.51-1.452 2.168-3.634 1.507-6.558-.322-1.486-1.562-3.922-1.903-3.945l-.027.011a.873.873 0 00-.086.044c-.305.175-.681.573-1.238 1.297l-.737.978-.263.334a7.581 7.581 0 01-.342.396 34.964 34.964 0 01-1.695 1.73l-1.853 1.717c-3.567 3.333-6.295 5.263-8.83 5.804-3.028.654-5.538-.81-6.062-3.583-.336-1.787.245-3.502 1.37-5.358 1.405-2.296 3.531-4.197 7.18-6.758 1.631-1.14 2.81-1.862 4.502-2.653l.316-.14c.113-.048.234-.097.368-.15l1.16-.434c.78-.293 1.26-.498 1.615-.705a2.34 2.34 0 00.251-.166l.042-.036-.011-.023c-.085-.142-.333-.348-.829-.646l-.422-.242-.481-.271c-.394-.227-.675-.414-.914-.624-3.56-3.095-6.908-7.721-7.855-11.783-.356-1.512-.5-2.847-.314-4.076.248-1.533 1.35-3.354 2.869-3.859 1.63-.55 2.981-.222 4.326.706l.266.191.705.551c.487.37.87.717 1.352 1.217l1.139 1.214c.225.236.372.38.574.563l.564.51-.2.624c-.6 1.867-1.015 4.975-.851 7.367.197 2.88 1.096 4.387 2.695 4.405 2.387.024 3.144-1.544 2.546-4.625-.504-2.593-2.045-5.731-3.238-6.92l-.131-.123-.513-.459.236-.646c1.41-3.856 2.766-6.134 5.132-7.4l.248-.128c2.072-1.02 3.727-.203 4.552 1.82.562 1.375.766 3.324.667 5.306-.164 3.313-.65 6.126-1.546 9.432l-.287 1.03c-.102.357-.212.733-.333 1.14l-1.12 3.728-.069.242a14.085 14.085 0 00-.315 1.36l.206.06c.15.04.392.099.76.168l.942.166c6.958 1.21 13.256 4.546 18.035 9.32 6.192 6.201 9.649 13.525 10.445 23.36l.044.593.089 1.284c-.002-.276.025-.59.076-.996l.14-1.028c.041-.337.054-.53.047-.71-.22-5.456-1.807-10.12-4.812-15.46-4.993-8.855-12.962-14.374-23.759-16.896l-.57-.13-1.025-.227.381-1.465c.333-1.236 1.074-3.897 1.227-4.466.896-3.34 1.452-5.97 1.722-8.523.161-1.528.206-2.956.124-4.29-.215-3.507-1.411-5.321-3.633-5.687zM25.06 80.623l.367.502c.098.134.183.242.27.341l.103.11c3.353 3.459 8.214 5.517 14.552 6.422l.563.077 2.686.35-2.255 1.5c-2.626 1.746-7.098 2.942-11.979 3.339l-1.02.08c-5.305.402-8.558.33-11.006-.492-2.377-.792-4.185-2.634-4.227-5.281-.044-2.168 1.182-3.862 3.383-5.2 1.385-.842 2.854-1.434 5.317-2.23l.82-.26c1.053-.327 1.809-.042 2.426.742zm-1.825 1.194l-.717.23c-5.24 1.705-7.424 3.135-7.377 5.487.027 1.653 1.199 2.847 2.843 3.395 2.242.753 5.592.778 11.218.313 2.994-.243 5.814-.804 8.045-1.591l.247-.091-.137-.026c-5.286-1.101-9.535-3.114-12.7-6.23l-.336-.34-.114-.127a14.7 14.7 0 01-.492-.618l-.324-.447c-.02-.022-.03.006-.156.045zm35.92-17.144c.261.114.4.244.569.443l.536.51c.179.174.363.356.57.563l1.166 1.181c5.142 5.25 7.847 6.87 13.11 6.53 2.473-.157 5.715-.731 8.49-1.454l.588-.157c.298-.083 1.995-.635 2.283-.725.542-.169 1.03-.31 1.497-.43 2.985-.773 4.895-.709 5.486 1.102.592 1.833-.836 3.524-3.31 5.365-8.4 6.299-24.277 9.596-42.794 10.263a1.107 1.107 0 01-1.192-1.003c-.026-.249.02-.454.105-.68l.082-.193.111-.221.125-.262c1.2-2.638 1.41-6.485.028-8.84l-.148-.238-.877-1.32 1.567-.242c5.474-.844 8.465-3.74 10.336-9.083l.12-.36c.2-.643.831-1.063 1.551-.749zm-1.362-1.337l-.158.604c-1.574 6.02-4.974 9.991-10.535 10.503-.224.02-.45.027-.722.025l-.516-.01c-1.02-.03-1.254.022-1.274.074-.015.04-.017.026.042.121.093.148.803.973.806.977.256.316.466.62.649.954 2.026 3.7 1.302 8.457-1.43 10.871l-.19.161-.304.249-.392-.022c-7.637-.411-13.808-2.586-17.372-6.58l-.234-.268-1.25-1.479 1.927-.186c3.088-.297 6.587.038 10.078.869l.736.182.453.116c.206.05.372.081.5.097l.116.011-.304-.333-.235-.23a11.832 11.832 0 00-.483-.423l-1.128-.93c-.638-.532-1.066-.937-1.393-1.351-5.881-7.415-2.43-19.298 6.722-20.821 5.597-.934 8.788.573 14.228 5.349l1.663 1.47zm-15.557-4.819C34.707 59.77 31.793 69.804 36.77 76.08c.165.208.4.445.735.74l.52.441.714.586c1.76 1.454 2.14 1.928 2.034 2.951-.088.925-.602 1.57-1.419 1.771-.453.111-.9.082-1.494-.047l-.324-.076-.501-.13c-2.46-.626-4.927-.994-7.227-1.055l-.492-.008.072.06c3.105 2.5 7.775 3.997 13.443 4.438l.632.044.048-.046c1.791-1.784 2.294-5.2.921-7.95l-.126-.24a4.349 4.349 0 00-.447-.653l-.466-.546a5.025 5.025 0 01-.483-.632c-.374-.6-.475-1.235-.217-1.916.443-1.159 1.16-1.4 2.782-1.389l.732.016c.303.006.521.002.71-.014 4.355-.401 7.127-3.434 8.568-8.32l.023-.081-.374-.331c-5.237-4.648-7.958-5.999-12.898-5.175zm16.842 8.79l-.073.19c-1.962 4.903-5.053 7.917-10.092 9.092l-.082.017.056.132c1.044 2.643.871 6.035-.112 8.742l-.115.302 1.587-.076c16.614-.877 30.736-3.992 38.348-9.485l.332-.245.395-.303c1.467-1.16 2.37-2.286 2.2-2.811-.018-.056-.156-.125-.617-.14-.59-.02-1.412.11-2.433.375-.324.083-.662.179-1.028.289l-2.53.801a8.247 8.247 0 01-.192.057c-3.022.83-6.688 1.502-9.486 1.68-5.897.38-9.04-1.425-14.36-6.801l-1.234-1.254-.564-.562zM27.115 4.725c-1.689.83-2.821 2.48-3.96 5.327l-.189.483.163.193c1.337 1.634 2.715 4.553 3.281 7.145l.067.322c.81 4.17-.595 7.079-4.559 7.038-2.969-.032-4.436-2.493-4.696-6.293-.163-2.378.179-5.32.737-7.422l.023-.083-.177-.179a30.344 30.344 0 01-.404-.426l-.427-.46c-.57-.616-.935-.976-1.368-1.32l-.771-.604a8.069 8.069 0 00-.137-.104c-.93-.683-1.694-.895-2.685-.56-.66.219-1.37 1.392-1.509 2.25-.137.904-.017 2.015.285 3.299.834 3.577 3.944 7.874 7.215 10.718.1.087.245.188.458.315l.91.516c1.421.824 2.056 1.478 2.006 2.66-.028 1.118-.73 1.65-2.523 2.368l-1.02.39c-.231.085-.53.196-.644.24l-.351.137a8.49 8.49 0 00-.407.175c-1.565.732-2.655 1.4-4.197 2.477-3.432 2.41-5.394 4.163-6.61 6.152-.886 1.46-1.328 2.766-1.11 3.927.302 1.597 1.68 2.4 3.642 1.976 1.914-.408 4.226-1.978 7.2-4.683l2.17-2.001a33.335 33.335 0 001.613-1.602l.334-.36c.105-.112.225-.255.37-.44l.699-.924c.805-1.067 1.337-1.648 1.99-2.022.401-.23.821-.348 1.257-.319 1.695.112 3.227 3.12 3.748 5.53.815 3.609-.06 6.515-2.083 8.458-.926.89-2.042 1.642-3.719 2.573l-.545.298-2.44 1.302c-.371.2-.701.383-1.015.56l-.665.386-1.185.707-.335.203c-.343.21-.662.41-.966.608l-.174.113.13-.049c.506-.17 1.08-.164 1.726-.036l.218.047c.229.053.458.117.714.2l.531.179.315.11c.139.047.24.079.313.099l1.889.44c.29.065.53.117.736.16l.479.089.258-.339 1.213-1.689c2.017-2.755 3.765-4.112 6.325-4.112 4.173 0 6.614 6.55 3.581 9.414-1.507 1.438-3.34 1.843-6.147 1.74l-.582-.028-1.99-.126-.124-.007-.01.021c-2.24 4.281-1.67 12.866 1.257 16.95l.062.083.171-.013c2.151-.168 4.176-.198 6.077-.086l.369.024-.113-.21c-4.753-9.072-.318-20.922 9.502-22.507l.322-.048c4.79-.66 9.022.528 12.666 2.92a20.7 20.7 0 011.286.915l.341.27-.034-.282c-1.053-8.008-4.109-14.132-9.253-19.42l-.362-.368c-4.358-4.353-10.07-7.437-16.395-8.654l-1.338-.239c-1.625-.29-2.331-.583-2.685-1.572-.183-.513-.117-1.11.14-2.101l.167-.613.327-1.107.712-2.354c.296-.988.524-1.778.73-2.538.86-3.173 1.322-5.844 1.477-9.002.086-1.712-.09-3.39-.518-4.439-.412-1.008-.85-1.224-1.78-.766zM13.59 54.333l-.143.103c-1.492 1.085-2.456 2.081-2.74 2.9a1.278 1.278 0 00-.08.455c.036 1.56 2.229 1.88 2.687.748.07-.172.079-.459.02-.932l-.057-.403-.015-.097c-.224-1.423-.244-2.12.257-2.696l.071-.078zm16.516-2.907l.307.29c.916.864 1.469 2.296 1.294 3.662l-.035.227-.054.285-.197.213c-.932 1.012-2.27 1.378-4.219 1.428l-.313.006c-.29.002-.546 0-.924-.009l-1.187-.027-1.716-.023.848-1.492c1.669-2.937 3.07-4.367 5.518-4.534l.257-.013.421-.013zm-.819 2.083l-.069.01c-.964.171-1.716.741-2.516 1.838l-.109.152h.278c1.316-.012 2.21-.175 2.755-.527l.083-.059.002-.037a2.511 2.511 0 00-.387-1.323l-.037-.054zM29.5 1.5a1 1 0 01.724.31l.076.09 1.5 2a1 1 0 01.172.366l.023.134.5 5 .003.167-.5 7.5-.015.118-.03.116-2.671 8.459 3.435.764.154.048 7.5 3 .109.05.101.064 7 5a1 1 0 01.14.12l.06.07 6 7.5.113.177 4 8 .048.112.034.118 1 4.5.024.217v6.223l1.293 2.155 4.374 4.374 4.334 3.371 2.192.877h5.194l4.35-.965 5.567-1.516 2.5-.5L89 69.5h3.5a1 1 0 01.757.346l.075.1 1 1.5a1 1 0 01.161.436L94.5 72v2a1 1 0 01-.108.453l-.06.102-2 3a1 1 0 01-.22.235l-.088.062-6.5 4-.101.054-.107.043-12 4-.17.04-17.055 2.507-5.5.5-.19-.001-4.561-.456-.036.056a1 1 0 01-.758.404l-.117-.002-.972-.069-3.798 3.325a1 1 0 01-.303.182l-.113.035-8 2-.193.029-10 .5a1 1 0 01-.234-.016l-.114-.029-8-2.5a1 1 0 01-.678-.737l-.019-.117-.5-5a1 1 0 01.094-.535l.069-.12 2-3a1 1 0 01.173-.197l.104-.08 4.5-3a1 1 0 01.183-.096l.097-.034 3.5-1 .085-.02-.642-.963-.082-.149-2-4.5a1 1 0 01-.065-.202l-.016-.104-.5-5-.002-.177.5-6.5a1 1 0 01.052-.251l.05-.12 1.055-2.11-3.299-.942h-1.495l-.376 2.641a1 1 0 01-.198.47l-.085.096-1.5 1.5a1 1 0 01-.576.284l-.131.009h-3a1 1 0 01-.694-.28l-.087-.095-2-2.5a1 1 0 01-.219-.65l.01-.116.5-3.5a1 1 0 01.198-.47l.085-.096 3.5-3.5a1 1 0 01.167-.134l.093-.053 4.958-2.48 5.356-3.409 1.84-1.839 1.18-1.968-.789-1.972-1.253-2.193-1.638 1.962-3.556 3.552-3.5 3-.096.073-3 2a1 1 0 01-.304.136l-.11.022-3.5.5a1 1 0 01-.204.008l-.101-.012-3-.5a1 1 0 01-.45-.197l-.093-.082-2-2a1 1 0 01-.284-.576L1.5 45v-4.5a1 1 0 01.071-.371l.055-.115 2.5-4.5a1 1 0 01.16-.214l.1-.09 4.56-3.542 4.5-3 .148-.082 3.069-1.365-2.822-2.468a1 1 0 01-.085-.085l-.075-.095-3.5-5-.075-.126-2-4-.048-.112-.034-.118-1-4.5a1 1 0 01-.007-.402l.034-.131 1-3a1 1 0 01.289-.435l.105-.081 3-2a1 1 0 01.594-.167l.125.013 3 .5a1 1 0 01.336.12l.1.066 4 3 .096.082.085.093.529.662.796-1.984 1.5-3a1 1 0 01.115-.18l.072-.08 2-2a1 1 0 01.576-.284L25.5 1.5h4zm-5.369 79h-.993l-3.213.918-4.204 2.803-1.69 2.535.398 3.986 7.2 2.25 9.72-.486 7.674-1.919 2.126-1.86-3.22-.23a1 1 0 01-.179-.029l-.086-.026-7-2.5a1 1 0 01-.162-.075l-.075-.048-5-3.5a1 1 0 01-.184-.166l-.075-.098L24.13 80.5zm34.643-15.313l-.38.76-.062.108-1.943 2.914-.96 2.402a1 1 0 01-.209.323l-.095.087-2.5 2a1 1 0 01-.177.113l-.097.042-4 1.5a1 1 0 01-.232.057L48 75.5h-1.234l.591.986.092.198.5 1.5.04.175.5 3.5a1 1 0 01-.02.388l-.04.124-.98 2.445-.605 1.812 3.665.367 5.346-.484 16.913-2.488 11.805-3.935 6.215-3.825 1.712-2.567v-1.392l-.536-.804h-2.869l-2.332.465-5.546 1.511-4.5 1-.217.024H71a1 1 0 01-.25-.032l-.121-.04-2.5-1a1 1 0 01-.167-.085l-.076-.054-4.5-3.5-.093-.082-4.519-4.52zM46.351 57.5h-2.804l-4.194.466-2.647 1.765-2.323 3.251-1.84 4.602.922 4.151 1.408 4.223 3.834 3.835c.72.72.03 1.901-.917 1.685l-.106-.03-2.845-.948h-8.304l.192.288 4.737 3.316 6.742 2.408 6.416.458.95-2.841.9-2.254-.449-3.143-.437-1.312-1.443-2.406a1 1 0 01.743-1.508L45 73.5h2.816l3.685-1.382 2.168-1.734.903-2.255.096-.184 1.965-2.949.649-1.299-2.457-2.457-2.301-1.841-6.173-1.899zM29 3.5h-3.086l-1.593 1.593-1.393 2.778-1.184 2.959 2.037 2.545a1 1 0 01.136.226l.045.124 1 3.5.03.151.5 4a1 1 0 01-.198.732l-.087.1-1 1a1 1 0 01-.576.283l-.131.009H21a1 1 0 01-.866-.5l-.053-.106-1.5-3.5a1 1 0 01-.072-.26L18.5 19v-3l.01-.141.5-3.5.024-.117.038-.113.383-.96L18.3 9.725l-3.705-2.779-2.37-.395-2.386 1.591-.803 2.41.913 4.11 1.912 3.824 3.389 4.842 3.909 3.42a1 1 0 01-.14 1.608l-.113.058-4.421 1.964-4.371 2.911-4.339 3.374L3.5 40.758v3.827l1.481 1.481 2.532.422 3.119-.446 2.764-1.843 3.397-2.906 3.439-3.433 2.5-3a1 1 0 011.566.037l.07.107 2 3.5.06.125 1 2.5a1 1 0 01-.01.767l-.06.118-1.5 2.5-.07.101-.08.092-2 2-.171.137-5.5 3.5-.09.05-4.854 2.427-3.151 3.151-.392 2.741 1.43 1.787h2.104l.973-.973.453-3.168a1 1 0 01.877-.853l.113-.006H18a1 1 0 01.184.017l.09.021 3.367.962h.49l.975-1.947a1 1 0 01.115-.18l.072-.08 2.5-2.5a1 1 0 01.167-.134l.093-.053 3-1.5a1 1 0 011.058.102l.096.085 2 2a1 1 0 01.284.576L32.5 53v3.5a1 1 0 01-.346.757l-.1.075-1.5 1a1 1 0 01-.436.161L30 58.5h-6.632l-1.386 2.771-.478 6.217.475 4.754 1.899 4.272 1.324 1.986h9.383l-1.292-1.293a1 1 0 01-.199-.283l-.043-.108-1.5-4.5-.027-.1-1-4.5a1 1 0 01.01-.473l.038-.114 2-5 .05-.109.064-.101 2.5-3.5a1 1 0 01.163-.178l.096-.073 3-2a1 1 0 01.327-.142l.118-.02 4.5-.5.11-.006h3a1 1 0 01.198.02l.096.024 6.5 2a1 1 0 01.228.103l.103.072 2.5 2 .082.074.793.792v-4.972l-.95-4.276-3.899-7.798-5.845-7.306-6.789-4.85-7.313-2.924-4.42-.983a1 1 0 01-.766-1.165l.028-.112 2.964-9.387.486-7.291-.464-4.645L29 3.5zm.302 48.717l-2.209 1.104-2.272 2.272-.453.907h5.328l.804-.536v-2.549l-1.198-1.198zm-7.681-35.003l-.002.082c-.01.395-.006.785.012 1.147.078 1.526.39 2.258.535 2.25.093-.005.122-.045.149-.442.036-.534-.092-1.297-.326-2.06a8.157 8.157 0 00-.346-.93l-.022-.047z" fill="#000" fill-rule="nonzero"/></svg>