<svg width="98" height="97" fill="none" xmlns="http://www.w3.org/2000/svg"><mask id="a" maskUnits="userSpaceOnUse" x="0" y="0" width="98" height="97" fill="#000"><path fill="#fff" d="M0 0h98v97H0z"/><path fill-rule="evenodd" clip-rule="evenodd" d="M27.204 2.245c.648-.087 1.285-.168 1.922-.245 2.964.362 4.483 2.683 4.727 6.661.393 6.38-2.065 13.554-3.222 18.043 10.806 2.397 19.533 7.834 24.994 17.518 2.48 4.407 4.682 9.49 4.942 15.916.036.974-.408 2.418-.204 3.275.225.969 1.672 2.132 2.458 2.927 2.382 2.423 5.748 5.61 8.629 6.624 5.248 1.848 12.74-1.376 17.758-2.432 3.366-.703 5.595-.367 6.59 2.244.066.562.137 1.117.203 1.678-.995 3.743-4.574 5.982-8.22 7.865-10.502 5.405-27.74 8.154-41.753 7.986-2.637 2.29-6.273 3.784-10.557 4.758-2.122.27-4.248.545-6.37.816-5.289.204-11.434.51-14.438-2.473-1.372-1.362-2.397-3.922-1.836-6.416.872-3.87 5.59-6.212 10.236-7.354-.163-1.3-1.137-2.408-1.658-3.8-2.01-5.323-1.408-12.209.424-16.3-1.148-.422-2.556-.509-3.718-.912-.444 1.265-.327 2.325-.964 3.213-2.57 3.57-9.43 2.014-9.023-3.636.251-3.402 5.188-6.126 7.927-7.818 1.458-.903 3.483-1.974 5.206-2.988 1.694-1 3.671-2.372 4.054-3.77.42-1.53-.274-3.932-.76-5.008-.723.067-1.03.934-1.478 1.429-1.423 1.57-3.076 3.12-4.845 4.645-2.285 1.953-4.83 4.157-7.819 5.024-3.762 1.086-6.895-.48-8.169-4.055-.077-.662-.16-1.32-.24-1.973 1.551-7.977 8.042-12 15.11-15.555-2.809-3.167-8.389-8.124-9.05-15.075-.287-3.081.896-5.87 3.186-7.217 4.106-2.417 7.4 1.709 9.904 3.525 1.21-3.025 2.825-5.723 6.054-7.12zm20.791 36.148c-4.39-4.386-10.423-7.808-17.492-9.037-1.386-.25-2.437-.352-2.688-1.051-.167-.469.245-1.83.551-2.86 1.49-4.948 2.78-8.762 3.06-14.464.158-3.162-.484-7.777-3.758-6.166-2.657 1.305-3.979 4.513-4.875 6.966 2.57 2.296 7.22 13.51.137 13.439-5.079-.056-3.845-9.843-2.8-13.097-1.168-1.056-1.831-2.065-3.075-3.009-.857-.653-2.229-2.014-4.361-1.295-1.306.433-2.06 2.244-2.192 3.06-.19 1.25.061 2.668.3 3.682 1.036 4.442 4.942 8.997 7.533 11.25.908.796 3.085 1.383 3.03 2.704-.027 1.055-2.908 1.739-4.361 2.416-1.974.924-3.35 1.867-4.35 2.566-2.775 1.948-5.386 3.989-6.895 6.456-.628 1.035-1.576 2.851-1.24 4.641.408 2.157 2.326 3.326 4.851 2.78 2.657-.567 5.701-3.076 8.353-5.554 1.265-1.183 2.106-1.881 3.494-3.392.993-1.065 2.285-3.467 3.508-3.385 1.23.08 2.555 3.492 2.825 4.742.837 3.702-.356 6.12-1.795 7.503-2.015 1.932-5.237 3.197-8.404 5.1-2.02 1.208-6.803 3.906-6.737 6.425.066 2.906 3.86 3.03 4.64 1.106.51-1.264-.683-3.34.265-4.054.944-.714 2.857.265 3.657.453 1.581.374 2.871.684 3.713.77 1.816-2.09 3.617-6.206 7.37-6.206 3.254 0 5.252 5.427 2.882 7.666-2.25 2.147-5.795 1.336-8.716 1.28-2.841 4.487-2.336 14.698 1.423 19.145 3.253-.297 6.277-.286 9.032.082-6.151-8.542-2.311-21.579 7.893-22.976 9.069-1.249 14.647 4.88 15.418 5.621-.74-10.65-4.61-17.713-10.196-23.307zM23.221 22.705c1.514-.08 1.188-2.345.739-3.81-.474-1.56-1.306-2.686-1.805-3.783-.03-.091-.052-.179-.178-.133-.42 1.607-.95 7.86 1.244 7.726zm2.57 34.782c1.973.026 4.635.286 5.885-1.07.224-1.189-.327-2.368-.959-2.964-2.575.082-3.911 2.25-4.925 4.034zm17.278 1.03c-8.614 1.433-11.332 12.587-6.094 19.19 1.076 1.362 3.901 2.913 3.789 3.994-.127 1.336-1.432.897-2.478.632-3.259-.83-6.962-1.32-10.348-.993 3.555 4.201 9.986 6.119 16.886 6.491 2.366-1.932 3.305-6.231 1.372-9.76-.74-1.353-1.944-1.873-1.556-2.897.414-1.082 2.046-.623 3.371-.74 5.758-.53 8.451-5.186 9.644-9.75-3.943-3.465-7.705-7.315-14.586-6.167zm5.233 18.35c2.132 3.213 1.178 8.098.056 10.357-.005.02-.382.647-.077.628 14.597-.526 32.88-3.034 42.253-10.062 1.24-.923 3.428-2.77 2.953-4.243-.669-2.046-6.221.22-8.032.72-2.652.728-6.324 1.457-9.283 1.645-8.169.527-11.683-4.88-16.14-9.056-.199-.225-.397-.42-.47-.097-1.682 5.028-4.574 9.078-11.26 10.108zm-22.23 6.415c-.872-.898-.938-1.805-2.137-1.433-3.943 1.239-8.884 2.897-8.807 6.701.04 2.53 2.065 3.85 3.534 4.34 2.84.954 7.374.714 11.622.363 4.473-.363 8.925-1.46 11.5-3.172-6.216-.811-11.806-2.77-15.712-6.799z"/></mask><path fill-rule="evenodd" clip-rule="evenodd" d="M27.204 2.245c.648-.087 1.285-.168 1.922-.245 2.964.362 4.483 2.683 4.727 6.661.393 6.38-2.065 13.554-3.222 18.043 10.806 2.397 19.533 7.834 24.994 17.518 2.48 4.407 4.682 9.49 4.942 15.916.036.974-.408 2.418-.204 3.275.225.969 1.672 2.132 2.458 2.927 2.382 2.423 5.748 5.61 8.629 6.624 5.248 1.848 12.74-1.376 17.758-2.432 3.366-.703 5.595-.367 6.59 2.244.066.562.137 1.117.203 1.678-.995 3.743-4.574 5.982-8.22 7.865-10.502 5.405-27.74 8.154-41.753 7.986-2.637 2.29-6.273 3.784-10.557 4.758-2.122.27-4.248.545-6.37.816-5.289.204-11.434.51-14.438-2.473-1.372-1.362-2.397-3.922-1.836-6.416.872-3.87 5.59-6.212 10.236-7.354-.163-1.3-1.137-2.408-1.658-3.8-2.01-5.323-1.408-12.209.424-16.3-1.148-.422-2.556-.509-3.718-.912-.444 1.265-.327 2.325-.964 3.213-2.57 3.57-9.43 2.014-9.023-3.636.251-3.402 5.188-6.126 7.927-7.818 1.458-.903 3.483-1.974 5.206-2.988 1.694-1 3.671-2.372 4.054-3.77.42-1.53-.274-3.932-.76-5.008-.723.067-1.03.934-1.478 1.429-1.423 1.57-3.076 3.12-4.845 4.645-2.285 1.953-4.83 4.157-7.819 5.024-3.762 1.086-6.895-.48-8.169-4.055-.077-.662-.16-1.32-.24-1.973 1.551-7.977 8.042-12 15.11-15.555-2.809-3.167-8.389-8.124-9.05-15.075-.287-3.081.896-5.87 3.186-7.217 4.106-2.417 7.4 1.709 9.904 3.525 1.21-3.025 2.825-5.723 6.054-7.12zm20.791 36.148c-4.39-4.386-10.423-7.808-17.492-9.037-1.386-.25-2.437-.352-2.688-1.051-.167-.469.245-1.83.551-2.86 1.49-4.948 2.78-8.762 3.06-14.464.158-3.162-.484-7.777-3.758-6.166-2.657 1.305-3.979 4.513-4.875 6.966 2.57 2.296 7.22 13.51.137 13.439-5.079-.056-3.845-9.843-2.8-13.097-1.168-1.056-1.831-2.065-3.075-3.009-.857-.653-2.229-2.014-4.361-1.295-1.306.433-2.06 2.244-2.192 3.06-.19 1.25.061 2.668.3 3.682 1.036 4.442 4.942 8.997 7.533 11.25.908.796 3.085 1.383 3.03 2.704-.027 1.055-2.908 1.739-4.361 2.416-1.974.924-3.35 1.867-4.35 2.566-2.775 1.948-5.386 3.989-6.895 6.456-.628 1.035-1.576 2.851-1.24 4.641.408 2.157 2.326 3.326 4.851 2.78 2.657-.567 5.701-3.076 8.353-5.554 1.265-1.183 2.106-1.881 3.494-3.392.993-1.065 2.285-3.467 3.508-3.385 1.23.08 2.555 3.492 2.825 4.742.837 3.702-.356 6.12-1.795 7.503-2.015 1.932-5.237 3.197-8.404 5.1-2.02 1.208-6.803 3.906-6.737 6.425.066 2.906 3.86 3.03 4.64 1.106.51-1.264-.683-3.34.265-4.054.944-.714 2.857.265 3.657.453 1.581.374 2.871.684 3.713.77 1.816-2.09 3.617-6.206 7.37-6.206 3.254 0 5.252 5.427 2.882 7.666-2.25 2.147-5.795 1.336-8.716 1.28-2.841 4.487-2.336 14.698 1.423 19.145 3.253-.297 6.277-.286 9.032.082-6.151-8.542-2.311-21.579 7.893-22.976 9.069-1.249 14.647 4.88 15.418 5.621-.74-10.65-4.61-17.713-10.196-23.307zM23.221 22.705c1.514-.08 1.188-2.345.739-3.81-.474-1.56-1.306-2.686-1.805-3.783-.03-.091-.052-.179-.178-.133-.42 1.607-.95 7.86 1.244 7.726zm2.57 34.782c1.973.026 4.635.286 5.885-1.07.224-1.189-.327-2.368-.959-2.964-2.575.082-3.911 2.25-4.925 4.034zm17.278 1.03c-8.614 1.433-11.332 12.587-6.094 19.19 1.076 1.362 3.901 2.913 3.789 3.994-.127 1.336-1.432.897-2.478.632-3.259-.83-6.962-1.32-10.348-.993 3.555 4.201 9.986 6.119 16.886 6.491 2.366-1.932 3.305-6.231 1.372-9.76-.74-1.353-1.944-1.873-1.556-2.897.414-1.082 2.046-.623 3.371-.74 5.758-.53 8.451-5.186 9.644-9.75-3.943-3.465-7.705-7.315-14.586-6.167zm5.233 18.35c2.132 3.213 1.178 8.098.056 10.357-.005.02-.382.647-.077.628 14.597-.526 32.88-3.034 42.253-10.062 1.24-.923 3.428-2.77 2.953-4.243-.669-2.046-6.221.22-8.032.72-2.652.728-6.324 1.457-9.283 1.645-8.169.527-11.683-4.88-16.14-9.056-.199-.225-.397-.42-.47-.097-1.682 5.028-4.574 9.078-11.26 10.108zm-22.23 6.415c-.872-.898-.938-1.805-2.137-1.433-3.943 1.239-8.884 2.897-8.807 6.701.04 2.53 2.065 3.85 3.534 4.34 2.84.954 7.374.714 11.622.363 4.473-.363 8.925-1.46 11.5-3.172-6.216-.811-11.806-2.77-15.712-6.799z" fill="#000"/><path clip-rule="evenodd" d="M27.204 2.245c.648-.087 1.285-.168 1.922-.245 2.964.362 4.483 2.683 4.727 6.661.393 6.38-2.065 13.554-3.222 18.043 10.806 2.397 19.533 7.834 24.994 17.518 2.48 4.407 4.682 9.49 4.942 15.916.036.974-.408 2.418-.204 3.275.225.969 1.672 2.132 2.458 2.927 2.382 2.423 5.748 5.61 8.629 6.624 5.248 1.848 12.74-1.376 17.758-2.432 3.366-.703 5.595-.367 6.59 2.244.066.562.137 1.117.203 1.678-.995 3.743-4.574 5.982-8.22 7.865-10.502 5.405-27.74 8.154-41.753 7.986-2.637 2.29-6.273 3.784-10.557 4.758-2.122.27-4.248.545-6.37.816-5.289.204-11.434.51-14.438-2.473-1.372-1.362-2.397-3.922-1.836-6.416.872-3.87 5.59-6.212 10.236-7.354-.163-1.3-1.137-2.408-1.658-3.8-2.01-5.323-1.408-12.209.424-16.3-1.148-.422-2.556-.509-3.718-.912-.444 1.265-.327 2.325-.964 3.213-2.57 3.57-9.43 2.014-9.023-3.636.251-3.402 5.188-6.126 7.927-7.818 1.458-.903 3.483-1.974 5.206-2.988 1.694-1 3.671-2.372 4.054-3.77.42-1.53-.274-3.932-.76-5.008-.723.067-1.03.934-1.478 1.429-1.423 1.57-3.076 3.12-4.845 4.645-2.285 1.953-4.83 4.157-7.819 5.024-3.762 1.086-6.895-.48-8.169-4.055-.077-.662-.16-1.32-.24-1.973 1.551-7.977 8.042-12 15.11-15.555-2.809-3.167-8.389-8.124-9.05-15.075-.287-3.081.896-5.87 3.186-7.217 4.106-2.417 7.4 1.709 9.904 3.525 1.21-3.025 2.825-5.723 6.054-7.12zm20.791 36.148c-4.39-4.386-10.423-7.808-17.492-9.037-1.386-.25-2.437-.352-2.688-1.051-.167-.469.245-1.83.551-2.86 1.49-4.948 2.78-8.762 3.06-14.464.158-3.162-.484-7.777-3.758-6.166-2.657 1.305-3.979 4.513-4.875 6.966 2.57 2.296 7.22 13.51.137 13.439-5.079-.056-3.845-9.843-2.8-13.097-1.168-1.056-1.831-2.065-3.075-3.009-.857-.653-2.229-2.014-4.361-1.295-1.306.433-2.06 2.244-2.192 3.06-.19 1.25.061 2.668.3 3.682 1.036 4.442 4.942 8.997 7.533 11.25.908.796 3.085 1.383 3.03 2.704-.027 1.055-2.908 1.739-4.361 2.416-1.974.924-3.35 1.867-4.35 2.566-2.775 1.948-5.386 3.989-6.895 6.456-.628 1.035-1.576 2.851-1.24 4.641.408 2.157 2.326 3.326 4.851 2.78 2.657-.567 5.701-3.076 8.353-5.554 1.265-1.183 2.106-1.881 3.494-3.392.993-1.065 2.285-3.467 3.508-3.385 1.23.08 2.555 3.492 2.825 4.742.837 3.702-.356 6.12-1.795 7.503-2.015 1.932-5.237 3.197-8.404 5.1-2.02 1.208-6.803 3.906-6.737 6.425.066 2.906 3.86 3.03 4.64 1.106.51-1.264-.683-3.34.265-4.054.944-.714 2.857.265 3.657.453 1.581.374 2.871.684 3.713.77 1.816-2.09 3.617-6.206 7.37-6.206 3.254 0 5.252 5.427 2.882 7.666-2.25 2.147-5.795 1.336-8.716 1.28-2.841 4.487-2.336 14.698 1.423 19.145 3.253-.297 6.277-.286 9.032.082-6.151-8.542-2.311-21.579 7.893-22.976 9.069-1.249 14.647 4.88 15.418 5.621-.74-10.65-4.61-17.713-10.196-23.307zM23.221 22.705c1.514-.08 1.188-2.345.739-3.81-.474-1.56-1.306-2.686-1.805-3.783-.03-.091-.052-.179-.178-.133-.42 1.607-.95 7.86 1.244 7.726zm2.57 34.782c1.973.026 4.635.286 5.885-1.07.224-1.189-.327-2.368-.959-2.964-2.575.082-3.911 2.25-4.925 4.034zm17.278 1.03c-8.614 1.433-11.332 12.587-6.094 19.19 1.076 1.362 3.901 2.913 3.789 3.994-.127 1.336-1.432.897-2.478.632-3.259-.83-6.962-1.32-10.348-.993 3.555 4.201 9.986 6.119 16.886 6.491 2.366-1.932 3.305-6.231 1.372-9.76-.74-1.353-1.944-1.873-1.556-2.897.414-1.082 2.046-.623 3.371-.74 5.758-.53 8.451-5.186 9.644-9.75-3.943-3.465-7.705-7.315-14.586-6.167zm5.233 18.35c2.132 3.213 1.178 8.098.056 10.357-.005.02-.382.647-.077.628 14.597-.526 32.88-3.034 42.253-10.062 1.24-.923 3.428-2.77 2.953-4.243-.669-2.046-6.221.22-8.032.72-2.652.728-6.324 1.457-9.283 1.645-8.169.527-11.683-4.88-16.14-9.056-.199-.225-.397-.42-.47-.097-1.682 5.028-4.574 9.078-11.26 10.108zm-22.23 6.415c-.872-.898-.938-1.805-2.137-1.433-3.943 1.239-8.884 2.897-8.807 6.701.04 2.53 2.065 3.85 3.534 4.34 2.84.954 7.374.714 11.622.363 4.473-.363 8.925-1.46 11.5-3.172-6.216-.811-11.806-2.77-15.712-6.799z" stroke="#000" stroke-width="2" mask="url(#a)"/></svg>