<svg width="96" height="96" fill="none" xmlns="http://www.w3.org/2000/svg"><path fill-rule="evenodd" clip-rule="evenodd" d="M48.952 8c9.996.003 11.401.052 15.54.24 4.257.195 7.165.871 9.71 1.86 2.63 1.022 4.86 2.39 7.085 4.613 2.223 2.224 3.591 4.455 4.613 7.085.989 2.545 1.665 5.452 1.86 9.71.19 4.181.238 5.573.24 15.851v1.282c-.002 10.278-.05 11.67-.24 15.851-.195 4.257-.871 7.165-1.86 9.71-1.022 2.63-2.39 4.86-4.614 7.085-2.223 2.223-4.454 3.591-7.085 4.613-2.544.989-5.451 1.665-9.709 1.86-4.181.19-5.573.238-15.852.24h-1.28c-10.28-.002-11.67-.05-15.852-.24-4.258-.195-7.165-.871-9.71-1.86-2.63-1.022-4.86-2.39-7.085-4.614-2.223-2.223-3.591-4.454-4.613-7.084-.989-2.545-1.665-5.453-1.86-9.71-.188-4.139-.237-5.544-.24-15.54v-1.904c.003-9.996.052-11.402.24-15.54.195-4.258.871-7.165 1.86-9.71 1.022-2.63 2.39-4.86 4.613-7.085 2.224-2.223 4.455-3.591 7.085-4.613 2.545-.989 5.452-1.665 9.71-1.86 4.138-.188 5.544-.237 15.54-.24h1.904zm-.322 7.207h-1.26c-10.102.002-11.4.045-15.533.233-3.9.178-6.018.83-7.428 1.378-1.867.725-3.2 1.592-4.6 2.992-1.399 1.4-2.266 2.732-2.991 4.6-.548 1.409-1.2 3.526-1.378 7.427-.188 4.133-.231 5.43-.233 15.533v1.26c.002 10.102.045 11.4.233 15.533.178 3.9.83 6.018 1.378 7.428.725 1.867 1.592 3.2 2.992 4.6 1.4 1.399 2.732 2.266 4.6 2.991 1.409.548 3.526 1.2 7.427 1.378 4.132.188 5.43.231 15.533.233h1.26c10.103-.002 11.4-.045 15.533-.233 3.9-.178 6.018-.83 7.428-1.378 1.867-.725 3.2-1.592 4.6-2.992 1.399-1.4 2.266-2.732 2.991-4.6.548-1.409 1.2-3.527 1.378-7.427.188-4.133.231-5.43.233-15.533v-1.26c-.002-10.102-.045-11.4-.233-15.533-.178-3.9-.83-6.018-1.378-7.428-.725-1.867-1.592-3.2-2.992-4.6-1.4-1.399-2.732-2.266-4.6-2.991-1.409-.548-3.527-1.2-7.427-1.378-4.133-.188-5.43-.231-15.533-.233zM48 27.46c11.344 0 20.54 9.197 20.54 20.541 0 11.344-9.196 20.54-20.54 20.54S27.46 59.345 27.46 48 36.655 27.46 48 27.46zm0 7.208c-7.364 0-13.333 5.97-13.333 13.333 0 7.364 5.97 13.333 13.333 13.333 7.364 0 13.333-5.97 13.333-13.333 0-7.364-5.97-13.333-13.333-13.333zm21.352-12.82a4.8 4.8 0 110 9.601 4.8 4.8 0 010-9.6z" fill="#000"/></svg>